<?xml version="1.0" encoding="UTF-8" standalone="no"?><svg xmlns="http://www.w3.org/2000/svg" xmlns:xlink="http://www.w3.org/1999/xlink" contentScriptType="application/ecmascript" contentStyleType="text/css" height="829px" preserveAspectRatio="none" style="width:1752px;height:829px;" version="1.1" viewBox="0 0 1752 829" width="1752px" zoomAndPan="magnify"><defs><filter height="300%" id="frrlxp9o4w28p" width="300%" x="-1" y="-1"><feGaussianBlur result="blurOut" stdDeviation="2.0"/><feColorMatrix in="blurOut" result="blurOut2" type="matrix" values="0 0 0 0 0 0 0 0 0 0 0 0 0 0 0 0 0 0 .4 0"/><feOffset dx="4.0" dy="4.0" in="blurOut2" result="blurOut3"/><feBlend in="SourceGraphic" in2="blurOut3" mode="normal"/></filter></defs><g><rect fill="#FACFD2" height="814.1191" style="stroke: #A80036; stroke-width: 1.0;" width="99" x="9" y="4"/><rect fill="#F7DCC6" height="814.1191" style="stroke: #A80036; stroke-width: 1.0;" width="546" x="181" y="4"/><text fill="#000000" font-family="sans-serif" font-size="13" font-weight="bold" lengthAdjust="spacingAndGlyphs" textLength="102" x="403" y="16.5684">WordPress.com</text><rect fill="#F5E6B3" height="814.1191" style="stroke: #A80036; stroke-width: 1.0;" width="141" x="739" y="4"/><text fill="#000000" font-family="sans-serif" font-size="13" font-weight="bold" lengthAdjust="spacingAndGlyphs" textLength="53" x="783" y="16.5684">Calypso</text><rect fill="#B8E6BF" height="814.1191" style="stroke: #A80036; stroke-width: 1.0;" width="833" x="892" y="4"/><text fill="#000000" font-family="sans-serif" font-size="13" font-weight="bold" lengthAdjust="spacingAndGlyphs" textLength="138" x="1239.5" y="16.5684">Composite Checkout</text><rect fill="#FFFFFF" filter="url(#frrlxp9o4w28p)" height="29.3105" style="stroke: #A80036; stroke-width: 1.0;" width="10" x="53.5" y="368.5938"/><rect fill="#FFFFFF" filter="url(#frrlxp9o4w28p)" height="127.2422" style="stroke: #A80036; stroke-width: 1.0;" width="10" x="266.5" y="299.9727"/><rect fill="#FFFFFF" filter="url(#frrlxp9o4w28p)" height="194.5527" style="stroke: #A80036; stroke-width: 1.0;" width="10" x="540.5" y="246.6621"/><rect fill="#FFFFFF" filter="url(#frrlxp9o4w28p)" height="237.8633" style="stroke: #A80036; stroke-width: 1.0;" width="10" x="804.5" y="217.3516"/><line style="stroke: #A80036; stroke-width: 1.0; stroke-dasharray: 5.0,5.0;" x1="58" x2="58" y1="58.7988" y2="779.6309"/><line style="stroke: #A80036; stroke-width: 1.0; stroke-dasharray: 5.0,5.0;" x1="271" x2="271" y1="58.7988" y2="779.6309"/><line style="stroke: #A80036; stroke-width: 1.0; stroke-dasharray: 5.0,5.0;" x1="545" x2="545" y1="58.7988" y2="779.6309"/><line style="stroke: #A80036; stroke-width: 1.0; stroke-dasharray: 5.0,5.0;" x1="809" x2="809" y1="58.7988" y2="779.6309"/><line style="stroke: #A80036; stroke-width: 1.0; stroke-dasharray: 5.0,5.0;" x1="1005" x2="1005" y1="58.7988" y2="779.6309"/><line style="stroke: #A80036; stroke-width: 1.0; stroke-dasharray: 5.0,5.0;" x1="1227" x2="1227" y1="58.7988" y2="779.6309"/><line style="stroke: #A80036; stroke-width: 1.0; stroke-dasharray: 5.0,5.0;" x1="1424" x2="1424" y1="58.7988" y2="779.6309"/><line style="stroke: #A80036; stroke-width: 1.0; stroke-dasharray: 5.0,5.0;" x1="1619" x2="1619" y1="58.7988" y2="779.6309"/><rect fill="#FEFECE" filter="url(#frrlxp9o4w28p)" height="30.4883" style="stroke: #A80036; stroke-width: 1.5;" width="77" x="18" y="23.3105"/><text fill="#000000" font-family="sans-serif" font-size="14" lengthAdjust="spacingAndGlyphs" textLength="63" x="25" y="43.8457">Database</text><rect fill="#FEFECE" filter="url(#frrlxp9o4w28p)" height="30.4883" style="stroke: #A80036; stroke-width: 1.5;" width="77" x="18" y="778.6309"/><text fill="#000000" font-family="sans-serif" font-size="14" lengthAdjust="spacingAndGlyphs" textLength="63" x="25" y="799.166">Database</text><rect fill="#FEFECE" filter="url(#frrlxp9o4w28p)" height="30.4883" style="stroke: #A80036; stroke-width: 1.5;" width="159" x="190" y="23.3105"/><text fill="#000000" font-family="sans-serif" font-size="14" lengthAdjust="spacingAndGlyphs" textLength="145" x="197" y="43.8457">Store_Shopping_Cart</text><rect fill="#FEFECE" filter="url(#frrlxp9o4w28p)" height="30.4883" style="stroke: #A80036; stroke-width: 1.5;" width="159" x="190" y="778.6309"/><text fill="#000000" font-family="sans-serif" font-size="14" lengthAdjust="spacingAndGlyphs" textLength="145" x="197" y="799.166">Store_Shopping_Cart</text><rect fill="#FEFECE" filter="url(#frrlxp9o4w28p)" height="30.4883" style="stroke: #A80036; stroke-width: 1.5;" width="341" x="373" y="23.3105"/><text fill="#000000" font-family="sans-serif" font-size="14" lengthAdjust="spacingAndGlyphs" textLength="327" x="380" y="43.8457">WPCOM_JSON_API_Me_Shopping_Cart_Endpoint</text><rect fill="#FEFECE" filter="url(#frrlxp9o4w28p)" height="30.4883" style="stroke: #A80036; stroke-width: 1.5;" width="341" x="373" y="778.6309"/><text fill="#000000" font-family="sans-serif" font-size="14" lengthAdjust="spacingAndGlyphs" textLength="327" x="380" y="799.166">WPCOM_JSON_API_Me_Shopping_Cart_Endpoint</text><rect fill="#FEFECE" filter="url(#frrlxp9o4w28p)" height="30.4883" style="stroke: #A80036; stroke-width: 1.5;" width="119" x="748" y="23.3105"/><text fill="#000000" font-family="sans-serif" font-size="14" lengthAdjust="spacingAndGlyphs" textLength="105" x="755" y="43.8457">Undocumented</text><rect fill="#FEFECE" filter="url(#frrlxp9o4w28p)" height="30.4883" style="stroke: #A80036; stroke-width: 1.5;" width="119" x="748" y="778.6309"/><text fill="#000000" font-family="sans-serif" font-size="14" lengthAdjust="spacingAndGlyphs" textLength="105" x="755" y="799.166">Undocumented</text><rect fill="#FEFECE" filter="url(#frrlxp9o4w28p)" height="30.4883" style="stroke: #A80036; stroke-width: 1.5;" width="204" x="901" y="23.3105"/><text fill="#000000" font-family="sans-serif" font-size="14" lengthAdjust="spacingAndGlyphs" textLength="190" x="908" y="43.8457">useInitializeCartFromServer</text><rect fill="#FEFECE" filter="url(#frrlxp9o4w28p)" height="30.4883" style="stroke: #A80036; stroke-width: 1.5;" width="204" x="901" y="778.6309"/><text fill="#000000" font-family="sans-serif" font-size="14" lengthAdjust="spacingAndGlyphs" textLength="190" x="908" y="799.166">useInitializeCartFromServer</text><rect fill="#FEFECE" filter="url(#frrlxp9o4w28p)" height="30.4883" style="stroke: #A80036; stroke-width: 1.5;" width="193" x="1129" y="23.3105"/><text fill="#000000" font-family="sans-serif" font-size="14" lengthAdjust="spacingAndGlyphs" textLength="179" x="1136" y="43.8457">useShoppingCartManager</text><rect fill="#FEFECE" filter="url(#frrlxp9o4w28p)" height="30.4883" style="stroke: #A80036; stroke-width: 1.5;" width="193" x="1129" y="778.6309"/><text fill="#000000" font-family="sans-serif" font-size="14" lengthAdjust="spacingAndGlyphs" textLength="179" x="1136" y="799.166">useShoppingCartManager</text><rect fill="#FEFECE" filter="url(#frrlxp9o4w28p)" height="30.4883" style="stroke: #A80036; stroke-width: 1.5;" width="153" x="1346" y="23.3105"/><text fill="#000000" font-family="sans-serif" font-size="14" lengthAdjust="spacingAndGlyphs" textLength="139" x="1353" y="43.8457">CompositeCheckout</text><rect fill="#FEFECE" filter="url(#frrlxp9o4w28p)" height="30.4883" style="stroke: #A80036; stroke-width: 1.5;" width="153" x="1346" y="778.6309"/><text fill="#000000" font-family="sans-serif" font-size="14" lengthAdjust="spacingAndGlyphs" textLength="139" x="1353" y="799.166">CompositeCheckout</text><rect fill="#FEFECE" filter="url(#frrlxp9o4w28p)" height="30.4883" style="stroke: #A80036; stroke-width: 1.5;" width="189" x="1523" y="23.3105"/><text fill="#000000" font-family="sans-serif" font-size="14" lengthAdjust="spacingAndGlyphs" textLength="175" x="1530" y="43.8457">useShoppingCartReducer</text><rect fill="#FEFECE" filter="url(#frrlxp9o4w28p)" height="30.4883" style="stroke: #A80036; stroke-width: 1.5;" width="189" x="1523" y="778.6309"/><text fill="#000000" font-family="sans-serif" font-size="14" lengthAdjust="spacingAndGlyphs" textLength="175" x="1530" y="799.166">useShoppingCartReducer</text><rect fill="#FFFFFF" filter="url(#frrlxp9o4w28p)" height="29.3105" style="stroke: #A80036; stroke-width: 1.0;" width="10" x="53.5" y="368.5938"/><rect fill="#FFFFFF" filter="url(#frrlxp9o4w28p)" height="127.2422" style="stroke: #A80036; stroke-width: 1.0;" width="10" x="266.5" y="299.9727"/><rect fill="#FFFFFF" filter="url(#frrlxp9o4w28p)" height="194.5527" style="stroke: #A80036; stroke-width: 1.0;" width="10" x="540.5" y="246.6621"/><rect fill="#FFFFFF" filter="url(#frrlxp9o4w28p)" height="237.8633" style="stroke: #A80036; stroke-width: 1.0;" width="10" x="804.5" y="217.3516"/><polygon fill="#A80036" points="1412.5,86.1094,1422.5,90.1094,1412.5,94.1094,1416.5,90.1094" style="stroke: #A80036; stroke-width: 1.0;"/><line style="stroke: #A80036; stroke-width: 1.0;" x1="809.5" x2="1418.5" y1="90.1094" y2="90.1094"/><text fill="#000000" font-family="sans-serif" font-size="13" lengthAdjust="spacingAndGlyphs" textLength="92" x="816.5" y="85.3672">import getCart</text><polygon fill="#A80036" points="1238.5,115.4199,1228.5,119.4199,1238.5,123.4199,1234.5,119.4199" style="stroke: #A80036; stroke-width: 1.0;"/><line style="stroke: #A80036; stroke-width: 1.0;" x1="1232.5" x2="1423.5" y1="119.4199" y2="119.4199"/><text fill="#000000" font-family="sans-serif" font-size="13" lengthAdjust="spacingAndGlyphs" textLength="100" x="1244.5" y="114.6777">cartKey, getCart</text><path d="M1136,132.4199 L1136,157.4199 L1314,157.4199 L1314,142.4199 L1304,132.4199 L1136,132.4199 " fill="#FBFB77" filter="url(#frrlxp9o4w28p)" style="stroke: #A80036; stroke-width: 1.0;"/><path d="M1304,132.4199 L1304,142.4199 L1314,142.4199 L1304,132.4199 " fill="#FBFB77" style="stroke: #A80036; stroke-width: 1.0;"/><text fill="#000000" font-family="sans-serif" font-size="13" lengthAdjust="spacingAndGlyphs" textLength="157" x="1142" y="149.9883">getCart bound to cartKey</text><polygon fill="#A80036" points="1016,184.041,1006,188.041,1016,192.041,1012,188.041" style="stroke: #A80036; stroke-width: 1.0;"/><line style="stroke: #A80036; stroke-width: 1.0;" x1="1010" x2="1226.5" y1="188.041" y2="188.041"/><text fill="#000000" font-family="sans-serif" font-size="13" lengthAdjust="spacingAndGlyphs" textLength="46" x="1022" y="183.2988">getCart</text><polygon fill="#A80036" points="825.5,213.3516,815.5,217.3516,825.5,221.3516,821.5,217.3516" style="stroke: #A80036; stroke-width: 1.0;"/><line style="stroke: #A80036; stroke-width: 1.0;" x1="819.5" x2="1004" y1="217.3516" y2="217.3516"/><text fill="#000000" font-family="sans-serif" font-size="13" lengthAdjust="spacingAndGlyphs" textLength="94" x="831.5" y="212.6094">&lt;&lt; getCart &gt;&gt;</text><polygon fill="#A80036" points="561.5,242.6621,551.5,246.6621,561.5,250.6621,557.5,246.6621" style="stroke: #A80036; stroke-width: 1.0;"/><line style="stroke: #A80036; stroke-width: 1.0;" x1="555.5" x2="803.5" y1="246.6621" y2="246.6621"/><text fill="#000000" font-family="sans-serif" font-size="13" lengthAdjust="spacingAndGlyphs" textLength="185" x="567.5" y="241.9199">/me/shopping-cart/{cartKey}</text><path d="M502,259.6621 L502,284.6621 L584,284.6621 L584,269.6621 L574,259.6621 L502,259.6621 " fill="#FBFB77" filter="url(#frrlxp9o4w28p)" style="stroke: #A80036; stroke-width: 1.0;"/><path d="M574,259.6621 L574,269.6621 L584,269.6621 L574,259.6621 " fill="#FBFB77" style="stroke: #A80036; stroke-width: 1.0;"/><text fill="#000000" font-family="sans-serif" font-size="13" lengthAdjust="spacingAndGlyphs" textLength="61" x="508" y="277.2305">$cart_key</text><polygon fill="#A80036" points="287.5,295.9727,277.5,299.9727,287.5,303.9727,283.5,299.9727" style="stroke: #A80036; stroke-width: 1.0;"/><line style="stroke: #A80036; stroke-width: 1.0;" x1="281.5" x2="539.5" y1="299.9727" y2="299.9727"/><path d="M171,312.9727 L171,337.9727 L368,337.9727 L368,322.9727 L358,312.9727 L171,312.9727 " fill="#FBFB77" filter="url(#frrlxp9o4w28p)" style="stroke: #A80036; stroke-width: 1.0;"/><path d="M358,312.9727 L358,322.9727 L368,322.9727 L358,312.9727 " fill="#FBFB77" style="stroke: #A80036; stroke-width: 1.0;"/><text fill="#000000" font-family="sans-serif" font-size="13" lengthAdjust="spacingAndGlyphs" textLength="176" x="177" y="330.541">'shopping_cart_' . $cart_key</text><polygon fill="#A80036" points="74.5,364.5938,64.5,368.5938,74.5,372.5938,70.5,368.5938" style="stroke: #A80036; stroke-width: 1.0;"/><line style="stroke: #A80036; stroke-width: 1.0;" x1="68.5" x2="265.5" y1="368.5938" y2="368.5938"/><text fill="#000000" font-family="sans-serif" font-size="13" lengthAdjust="spacingAndGlyphs" textLength="184" x="80.5" y="363.8516">wp_user_attributes.meta_key</text><polygon fill="#A80036" points="254.5,393.9043,264.5,397.9043,254.5,401.9043,258.5,397.9043" style="stroke: #A80036; stroke-width: 1.0;"/><line style="stroke: #A80036; stroke-width: 1.0; stroke-dasharray: 2.0,2.0;" x1="58.5" x2="260.5" y1="397.9043" y2="397.9043"/><text fill="#000000" font-family="sans-serif" font-size="13" lengthAdjust="spacingAndGlyphs" textLength="71" x="65.5" y="393.1621">meta_value</text><polygon fill="#A80036" points="528.5,423.2148,538.5,427.2148,528.5,431.2148,532.5,427.2148" style="stroke: #A80036; stroke-width: 1.0;"/><line style="stroke: #A80036; stroke-width: 1.0; stroke-dasharray: 2.0,2.0;" x1="271.5" x2="534.5" y1="427.2148" y2="427.2148"/><text fill="#000000" font-family="sans-serif" font-size="13" lengthAdjust="spacingAndGlyphs" textLength="88" x="278.5" y="422.4727">-&gt;to_js_cart()</text><polygon fill="#A80036" points="792.5,437.2148,802.5,441.2148,792.5,445.2148,796.5,441.2148" style="stroke: #A80036; stroke-width: 1.0;"/><line style="stroke: #A80036; stroke-width: 1.0; stroke-dasharray: 2.0,2.0;" x1="545.5" x2="798.5" y1="441.2148" y2="441.2148"/><polygon fill="#A80036" points="993,451.2148,1003,455.2148,993,459.2148,997,455.2148" style="stroke: #A80036; stroke-width: 1.0;"/><line style="stroke: #A80036; stroke-width: 1.0; stroke-dasharray: 2.0,2.0;" x1="809.5" x2="999" y1="455.2148" y2="455.2148"/><polygon fill="#A80036" points="1607.5,480.5254,1617.5,484.5254,1607.5,488.5254,1611.5,484.5254" style="stroke: #A80036; stroke-width: 1.0;"/><line style="stroke: #A80036; stroke-width: 1.0;" x1="1005" x2="1613.5" y1="484.5254" y2="484.5254"/><text fill="#000000" font-family="sans-serif" font-size="13" lengthAdjust="spacingAndGlyphs" textLength="272" x="1012" y="479.7832">dispatch RECEIVE_INITIAL_RESPONSE_CART</text><path d="M903,497.5254 L903,522.5254 L1102,522.5254 L1102,507.5254 L1092,497.5254 L903,497.5254 " fill="#FBFB77" filter="url(#frrlxp9o4w28p)" style="stroke: #A80036; stroke-width: 1.0;"/><path d="M1092,497.5254 L1092,507.5254 L1102,507.5254 L1092,497.5254 " fill="#FBFB77" style="stroke: #A80036; stroke-width: 1.0;"/><text fill="#000000" font-family="sans-serif" font-size="13" lengthAdjust="spacingAndGlyphs" textLength="178" x="909" y="515.0938">event CART_INIT_COMPLETE</text><path d="M1494,536.8359 L1494,591.8359 L1740,591.8359 L1740,546.8359 L1730,536.8359 L1494,536.8359 " fill="#FBFB77" filter="url(#frrlxp9o4w28p)" style="stroke: #A80036; stroke-width: 1.0;"/><path d="M1730,536.8359 L1730,546.8359 L1740,546.8359 L1730,536.8359 " fill="#FBFB77" style="stroke: #A80036; stroke-width: 1.0;"/><text fill="#000000" font-family="sans-serif" font-size="13" lengthAdjust="spacingAndGlyphs" textLength="225" x="1500" y="554.4043">Moves the payload to .responseCart</text><text fill="#000000" font-family="sans-serif" font-size="13" lengthAdjust="spacingAndGlyphs" textLength="148" x="1500" y="569.7148">updates .couponStatus,</text><text fill="#000000" font-family="sans-serif" font-size="13" lengthAdjust="spacingAndGlyphs" textLength="193" x="1500" y="585.0254">and sets .cacheStatus to 'valid'</text><polygon fill="#A80036" points="1238.5,619.0781,1228.5,623.0781,1238.5,627.0781,1234.5,623.0781" style="stroke: #A80036; stroke-width: 1.0;"/><line style="stroke: #A80036; stroke-width: 1.0;" x1="1232.5" x2="1618.5" y1="623.0781" y2="623.0781"/><text fill="#000000" font-family="sans-serif" font-size="13" lengthAdjust="spacingAndGlyphs" textLength="260" x="1244.5" y="618.3359">responseCart, couponStatus, cacheStatus</text><path d="M1158,636.0781 L1158,707.0781 L1292,707.0781 L1292,646.0781 L1282,636.0781 L1158,636.0781 " fill="#FBFB77" filter="url(#frrlxp9o4w28p)" style="stroke: #A80036; stroke-width: 1.0;"/><path d="M1282,636.0781 L1282,646.0781 L1292,646.0781 L1282,636.0781 " fill="#FBFB77" style="stroke: #A80036; stroke-width: 1.0;"/><text fill="#000000" font-family="sans-serif" font-size="13" lengthAdjust="spacingAndGlyphs" textLength="99" x="1164" y="653.6465">cacheStatus =&gt;</text><text fill="#000000" font-family="sans-serif" font-size="13" lengthAdjust="spacingAndGlyphs" textLength="61" x="1172" y="668.957">isLoading</text><text fill="#000000" font-family="sans-serif" font-size="13" lengthAdjust="spacingAndGlyphs" textLength="77" x="1172" y="684.2676">loadingError</text><text fill="#000000" font-family="sans-serif" font-size="13" lengthAdjust="spacingAndGlyphs" textLength="105" x="1172" y="699.5781">isPendingUpdate</text><polygon fill="#A80036" points="1412.5,718.3203,1422.5,722.3203,1412.5,726.3203,1416.5,722.3203" style="stroke: #A80036; stroke-width: 1.0;"/><line style="stroke: #A80036; stroke-width: 1.0;" x1="1227.5" x2="1418.5" y1="722.3203" y2="722.3203"/><path d="M1392,735.3203 L1392,760.3203 L1453,760.3203 L1453,745.3203 L1443,735.3203 L1392,735.3203 " fill="#FBFB77" filter="url(#frrlxp9o4w28p)" style="stroke: #A80036; stroke-width: 1.0;"/><path d="M1443,735.3203 L1443,745.3203 L1453,745.3203 L1443,735.3203 " fill="#FBFB77" style="stroke: #A80036; stroke-width: 1.0;"/><text fill="#000000" font-family="sans-serif" font-size="13" lengthAdjust="spacingAndGlyphs" textLength="40" x="1398" y="752.8887">render</text><!--
@startuml
skinparam ParticipantPadding 5
skinparam BoxPadding 5
box #facfd2
  participant Database
end box
box "WordPress.com" #f7dcc6
  participant Store_Shopping_Cart
  participant WPCOM_JSON_API_Me_Shopping_Cart_Endpoint
end box
box "Calypso" #f5e6b3
  participant Undocumented
end box
box "Composite Checkout" #b8e6bf
  participant useInitializeCartFromServer
  participant useShoppingCartManager
  participant CompositeCheckout
  participant useShoppingCartReducer
end box

Undocumented -> CompositeCheckout : import getCart
CompositeCheckout -> useShoppingCartManager : cartKey, getCart
note over useShoppingCartManager : getCart bound to cartKey
useShoppingCartManager -> useInitializeCartFromServer : getCart
useInitializeCartFromServer -> Undocumented : << getCart >>
activate Undocumented
Undocumented -> WPCOM_JSON_API_Me_Shopping_Cart_Endpoint : /me/shopping-cart/{cartKey}
activate WPCOM_JSON_API_Me_Shopping_Cart_Endpoint
note over WPCOM_JSON_API_Me_Shopping_Cart_Endpoint : $cart_key
WPCOM_JSON_API_Me_Shopping_Cart_Endpoint -> Store_Shopping_Cart
activate Store_Shopping_Cart
note over Store_Shopping_Cart : 'shopping_cart_' . $cart_key
Store_Shopping_Cart -> Database : wp_user_attributes.meta_key
activate Database
return meta_value
return ->to_js_cart()
return
return
useInitializeCartFromServer -> useShoppingCartReducer : dispatch RECEIVE_INITIAL_RESPONSE_CART
note over useInitializeCartFromServer : event CART_INIT_COMPLETE
note over useShoppingCartReducer
  Moves the payload to .responseCart
  updates .couponStatus,
  and sets .cacheStatus to 'valid'
end note
useShoppingCartReducer -> useShoppingCartManager : responseCart, couponStatus, cacheStatus
note over useShoppingCartManager
  cacheStatus =>
    isLoading
    loadingError
    isPendingUpdate
end note
useShoppingCartManager -> CompositeCheckout
note over CompositeCheckout: render
@enduml

PlantUML version 1.2019.06(Fri May 24 12:10:25 CDT 2019)
(GPL source distribution)
Java Runtime: Java(TM) SE Runtime Environment
JVM: Java HotSpot(TM) 64-Bit Server VM
Java Version: 14+36-1461
Operating System: Mac OS X
OS Version: 10.15.6
Default Encoding: UTF-8
Language: en
Country: US
--></g></svg>